# xmcd
#
# Track frame offsets: 
#        150
#        16673
#        34015
#        45398
#        62018
#        72402
#        93367
#        107426
#        120686
#        138939
#        147374
#        159655
#        174118
#        192676
#        204416
#        222688
#
# Disc length: 3059 seconds
#
# Revision: 0
# Processed by: cddbd v1.5.2PL0 Copyright (c) Steve Scherf et al.
# Submitted via: ExactAudioCopy v0.99pb5
#
DISCID=e10bf110
DTITLE=Ben Prestage - Real Music
DYEAR=2010
DGENRE=Blues
TTITLE0=Catfish Blues/Backdoor Man
TTITLE1=Crocodile Man
TTITLE2=Rag
TTITLE3=Vicksburg Blues
TTITLE4=Wrong Woman
TTITLE5=Hesitation Blues
TTITLE6=Sloppy Drunk
TTITLE7=Good Gin
TTITLE8=Real Music
TTITLE9=Save the Roach For Me
TTITLE10=Lazy Lazy Bones
TTITLE11=God is Gonna Cut You Down
TTITLE12=The Ambitious
TTITLE13=Darktown Strutters' Ball
TTITLE14=Someday Baby
TTITLE15=Buck Rag
EXTD=
EXTT0=
EXTT1=
EXTT2=
EXTT3=
EXTT4=
EXTT5=
EXTT6=
EXTT7=
EXTT8=
EXTT9=
EXTT10=
EXTT11=
EXTT12=
EXTT13=
EXTT14=
EXTT15=
PLAYORDER=
